<svg width="77" height="77" viewBox="0 0 77 77" fill="none" xmlns="http://www.w3.org/2000/svg">
<g clip-path="url(#clip0)">
<path d="M70.5647 0.0151367H6.42031C2.87213 0.0151367 0 2.88668 0 6.43545V70.5945C0 74.128 2.87213 77.0001 6.42031 77.0001H70.5793C74.1281 77.0001 76.985 74.128 77.0002 70.5798V6.43545C76.985 2.88668 74.1128 0.0151367 70.5647 0.0151367ZM12.8259 71.8726H20.5243V74.444H12.8259V71.8726ZM40.7027 69.3017H33.2451L33.0342 66.7303H39.7706C39.861 66.715 39.9509 66.7004 40.0413 66.6704L40.7027 69.3017ZM14.1792 66.7303H21.171L20.7499 69.3017H13.3222L14.1792 66.7303ZM23.7723 66.7303H30.4634L30.6737 69.3017H23.3512L23.7723 66.7303ZM24.1929 64.1742L24.614 61.6028H30.027L30.2379 64.1742H24.1929ZM32.824 64.1742L32.6131 61.6028H38.4925C38.5829 61.5881 38.6728 61.5728 38.7632 61.5429L39.4246 64.1589H32.824V64.1742ZM37.5604 56.7612C37.575 56.8364 37.5903 56.9269 37.6203 57.0021L38.1318 59.0466H32.4029L32.1926 56.4758H37.4999L37.5604 56.7612ZM29.6059 56.4758L29.8168 59.0466H25.0351L25.4563 56.4758H29.6059ZM22.4491 59.0319H16.75L17.412 57.0473C17.4572 56.9568 17.4871 56.8664 17.5018 56.7612L17.6075 56.4605H22.8702L22.4491 59.0319ZM15.8931 61.6028H22.0127L21.5921 64.1742H15.0361L15.8931 61.6028ZM23.0957 71.8726H30.7788L30.7941 74.444H23.0957V71.8726ZM33.3502 71.8726H41.0639V74.444H33.3649L33.3502 71.8726ZM39.7106 55.1825C39.2596 54.3854 38.4173 53.9044 37.4999 53.9044H17.6075C16.7054 53.9044 15.8631 54.4007 15.412 55.1825H2.57141V20.5394H74.4288V55.1825H39.7106ZM2.57141 6.43545C2.57141 4.31512 4.30057 2.58596 6.42031 2.58596H70.5793C72.6997 2.58596 74.4288 4.31512 74.4288 6.43545V17.9833H2.57141V6.43545ZM2.57141 70.5798V59.0319C2.57141 58.3254 3.14232 57.7539 3.84948 57.7539H14.4799L10.345 70.1734C10.2845 70.339 10.2698 70.5193 10.2845 70.6849C10.2845 70.6996 10.2698 70.7149 10.2698 70.7448V74.4287H6.42031C4.2853 74.4287 2.57141 72.7148 2.57141 70.5798ZM74.4136 70.5798C74.4136 72.6995 72.6844 74.4287 70.5647 74.4287H43.62V70.5798C43.62 70.5193 43.6048 70.4594 43.5895 70.3989C43.5895 70.3543 43.6048 70.309 43.5895 70.2638L40.4624 57.7539H74.4288V70.5798H74.4136Z" fill="white"/>
<path d="M55.1674 23.1104H21.8177C19.6974 23.1104 17.9683 24.8395 17.9683 26.9598V47.4841C17.9683 49.6045 19.6974 51.3336 21.8177 51.3336H55.1827C57.303 51.3336 59.0322 49.6045 59.0322 47.4841V26.9598C59.0169 24.8395 57.303 23.1104 55.1674 23.1104ZM56.4607 47.4841C56.4607 48.1907 55.8892 48.7622 55.1827 48.7622H21.8177C21.1106 48.7622 20.5397 48.1907 20.5397 47.4841V26.9598C20.5397 26.2533 21.1106 25.6818 21.8177 25.6818H55.1827C55.8892 25.6818 56.4607 26.2533 56.4607 26.9598V47.4841Z" fill="white"/>
<path d="M29.3804 5.86396C29.1401 5.4581 28.7037 5.21729 28.238 5.21729C27.7716 5.21729 27.3358 5.4581 27.095 5.86396L23.2461 13.5623C22.9301 14.1943 23.1856 14.9608 23.817 15.2915C24.449 15.6228 25.2155 15.352 25.5462 14.7206L25.8322 14.1491H30.6584L30.9445 14.7206C31.1547 15.1264 31.5606 15.3972 32.0117 15.4272C32.4628 15.4571 32.9139 15.2316 33.1547 14.8557C33.4102 14.4798 33.4401 13.9835 33.2298 13.5776L29.3804 5.86396ZM27.095 11.563L28.2227 9.29231L29.3504 11.563H27.095Z" fill="white"/>
<path d="M41.0639 5.14209H33.365C32.6584 5.14209 32.0869 5.71358 32.0869 6.42016C32.0869 7.12733 32.6584 7.69823 33.365 7.69823H35.9364V14.1191C35.9364 14.8257 36.5079 15.3972 37.2145 15.3972C37.921 15.3972 38.4925 14.8257 38.4925 14.1191V7.7135H41.0639C41.7705 7.7135 42.342 7.14201 42.342 6.43543C42.342 5.72885 41.7705 5.14209 41.0639 5.14209Z" fill="white"/>
<path d="M53.0928 5.24783C52.6111 5.05224 52.0549 5.15738 51.6943 5.53328L48.747 8.4806L45.8002 5.53328C45.439 5.17265 44.8828 5.05224 44.4018 5.26251C43.9207 5.4581 43.6047 5.92445 43.6047 6.45072V14.1491C43.6047 14.8557 44.1762 15.4272 44.8828 15.4272C45.5894 15.4272 46.1609 14.8557 46.1609 14.1491V9.53312L47.8148 11.1871C48.3112 11.6828 49.1229 11.6828 49.6345 11.1871L51.2884 9.53312V14.1338C51.2884 14.8404 51.8593 15.4119 52.5665 15.4119C53.2731 15.4119 53.8446 14.8404 53.8446 14.1338V6.43545C53.8892 5.90918 53.5738 5.44283 53.0928 5.24783Z" fill="white"/>
<path d="M11.5478 23.1104H8.97634C6.8566 23.1104 5.12744 24.8395 5.12744 26.9598C5.12744 29.0802 6.8566 30.8093 8.97634 30.8093H11.5478C13.6675 30.8093 15.3966 29.0802 15.3966 26.9598C15.3966 24.8395 13.6675 23.1104 11.5478 23.1104ZM11.5478 28.2379H8.97634C8.26976 28.2379 7.69827 27.6664 7.69827 26.9598C7.69827 26.2533 8.26976 25.6818 8.97634 25.6818H11.5478C12.2543 25.6818 12.8258 26.2533 12.8258 26.9598C12.8258 27.6664 12.2543 28.2379 11.5478 28.2379Z" fill="white"/>
<path d="M11.5478 33.3801H8.97634C6.8566 33.3801 5.12744 35.1093 5.12744 37.2296C5.12744 39.3494 6.8566 41.0785 8.97634 41.0785H11.5478C13.6675 41.0785 15.3966 39.3494 15.3966 37.2296C15.3966 35.1093 13.6675 33.3801 11.5478 33.3801ZM11.5478 38.5077H8.97634C8.26976 38.5077 7.69827 37.9362 7.69827 37.2296C7.69827 36.523 8.26976 35.9515 8.97634 35.9515H11.5478C12.2543 35.9515 12.8258 36.523 12.8258 37.2296C12.8258 37.9362 12.2543 38.5077 11.5478 38.5077Z" fill="white"/>
<path d="M11.5478 43.6345H8.97634C6.8566 43.6345 5.12744 45.3637 5.12744 47.484C5.12744 49.6043 6.8566 51.3335 8.97634 51.3335H11.5478C13.6675 51.3335 15.3966 49.6043 15.3966 47.484C15.3966 45.3637 13.6675 43.6345 11.5478 43.6345ZM11.5478 48.7773H8.97634C8.26976 48.7773 7.69827 48.2059 7.69827 47.4993C7.69827 46.7921 8.26976 46.2212 8.97634 46.2212H11.5478C12.2543 46.2212 12.8258 46.7921 12.8258 47.4993C12.8258 48.1906 12.2543 48.7773 11.5478 48.7773Z" fill="white"/>
<path d="M68.0084 23.1104H65.437C63.3173 23.1104 61.5881 24.8395 61.5881 26.9598C61.5881 29.0802 63.3173 30.8093 65.437 30.8093H68.0084C70.1282 30.8093 71.8573 29.0802 71.8573 26.9598C71.8573 24.8395 70.1282 23.1104 68.0084 23.1104ZM68.0084 28.2379H65.437C64.7305 28.2379 64.159 27.6664 64.159 26.9598C64.159 26.2533 64.7305 25.6818 65.437 25.6818H68.0084C68.715 25.6818 69.2865 26.2533 69.2865 26.9598C69.2865 27.6664 68.715 28.2379 68.0084 28.2379Z" fill="white"/>
<path d="M68.0084 33.3801H65.437C63.3173 33.3801 61.5881 35.1093 61.5881 37.2296C61.5881 39.3494 63.3173 41.0785 65.437 41.0785H68.0084C70.1282 41.0785 71.8573 39.3494 71.8573 37.2296C71.8573 35.1093 70.1282 33.3801 68.0084 33.3801ZM68.0084 38.5077H65.437C64.7305 38.5077 64.159 37.9362 64.159 37.2296C64.159 36.523 64.7305 35.9515 65.437 35.9515H68.0084C68.715 35.9515 69.2865 36.523 69.2865 37.2296C69.2865 37.9362 68.715 38.5077 68.0084 38.5077Z" fill="white"/>
<path d="M68.0084 43.6345H65.437C63.3173 43.6345 61.5881 45.3637 61.5881 47.484C61.5881 49.6043 63.3173 51.3335 65.437 51.3335H68.0084C70.1282 51.3335 71.8573 49.6043 71.8573 47.484C71.8573 45.3637 70.1282 43.6345 68.0084 43.6345ZM68.0084 48.7773H65.437C64.7305 48.7773 64.159 48.2059 64.159 47.4993C64.159 46.7921 64.7305 46.2212 65.437 46.2212H68.0084C68.715 46.2212 69.2865 46.7921 69.2865 47.4993C69.2865 48.1906 68.715 48.7773 68.0084 48.7773Z" fill="white"/>
<path d="M7.69848 6.43554C7.69848 7.14153 7.1264 7.71361 6.42041 7.71361C5.71441 7.71361 5.14233 7.14153 5.14233 6.43554C5.14233 5.72955 5.71441 5.15747 6.42041 5.15747C7.1264 5.15747 7.69848 5.72955 7.69848 6.43554Z" fill="white"/>
<path d="M19.2462 5.14209H11.5478C10.8413 5.14209 10.2698 5.71358 10.2698 6.42016C10.2698 7.12733 10.8413 7.69823 11.5478 7.69823H19.2462C19.9528 7.69823 20.5243 7.12733 20.5243 6.42016C20.5243 5.71358 19.9528 5.14209 19.2462 5.14209Z" fill="white"/>
<path d="M47.469 68.0237H49.3485L50.0704 70.8952C50.2207 71.4667 50.7317 71.8726 51.3185 71.8726H69.2867C69.7378 71.8726 70.1436 71.647 70.3844 71.2711C70.6246 70.8952 70.6399 70.4142 70.4443 70.023L69.437 68.0237C70.7903 67.9485 71.8428 66.8208 71.8575 65.4675V62.8961C71.8575 61.483 70.7151 60.3247 69.2867 60.3247H47.469C46.0559 60.3247 44.8982 61.4677 44.8982 62.8961V65.4675C44.9129 66.8654 46.0559 68.0237 47.469 68.0237ZM52.3258 69.3017L51.6791 66.7303H65.9182L67.1963 69.3017H52.3258ZM47.469 62.8808H69.2867V65.4523H68.159L67.8729 64.8808C67.6626 64.445 67.2116 64.1742 66.7305 64.1742H50.0404C49.6493 64.1742 49.2734 64.3545 49.0331 64.6705C48.8675 64.896 48.777 65.1815 48.7923 65.4523H47.469V62.8808Z" fill="white"/>
<path d="M41.064 33.3801C41.064 34.0867 41.6349 34.6582 42.342 34.6582C43.0486 34.6582 43.6201 34.0867 43.6201 33.3801C43.6048 31.0495 42.026 29.0197 39.7706 28.4335V28.2532C39.7706 27.546 39.1991 26.9751 38.4925 26.9751C37.786 26.9751 37.2145 27.546 37.2145 28.2532V28.4335C34.9438 29.005 33.365 31.0495 33.365 33.3801C33.365 35.7107 34.9438 37.7559 37.2145 38.3274V43.2893C36.4174 42.8382 35.9364 41.9959 35.9364 41.0785C35.9364 40.3719 35.3649 39.8004 34.6583 39.8004C33.9518 39.8004 33.3803 40.3719 33.3803 41.0785C33.3955 43.4091 34.9743 45.439 37.2297 46.0257V46.2061C37.2297 46.9126 37.8006 47.4841 38.5078 47.4841C39.2144 47.4841 39.7859 46.9126 39.7859 46.2061V46.0257C42.056 45.4543 43.6348 43.4091 43.6348 41.0785C43.6348 38.7479 42.056 36.7034 39.7859 36.1319V31.1699C40.5676 31.621 41.0487 32.4633 41.064 33.3801ZM35.9211 33.3801C35.9211 32.4633 36.4174 31.621 37.1992 31.1699V35.5903C36.4174 35.1246 35.9364 34.2823 35.9211 33.3801ZM41.064 41.0785C41.064 41.9959 40.5676 42.8382 39.7859 43.2893V38.8683C40.5676 39.3194 41.0487 40.1617 41.064 41.0785Z" fill="white"/>
<path d="M24.3739 32.0874C24.7192 32.0874 25.0352 31.9517 25.276 31.7114L26.5541 30.4334C27.0352 29.9371 27.0352 29.1248 26.5388 28.629C26.0425 28.1327 25.2455 28.1327 24.7345 28.6138L23.4564 29.8918C23.0958 30.2525 22.9754 30.8093 23.1857 31.2903C23.3965 31.7866 23.8623 32.0874 24.3739 32.0874Z" fill="white"/>
<path d="M29.8919 29.9072L23.4716 36.3275C23.1403 36.6429 23.0052 37.1245 23.1256 37.5756C23.246 38.0267 23.5914 38.3721 24.0425 38.4925C24.4936 38.6129 24.9752 38.4778 25.2906 38.1465L31.7109 31.7262C32.1925 31.2299 32.1925 30.4182 31.6962 29.9219C31.1847 29.4256 30.3882 29.4109 29.8919 29.9072Z" fill="white"/>
</g>
<defs>
<clipPath id="clip0">
<rect width="77" height="77" fill="white"/>
</clipPath>
</defs>
</svg>
