<svg width="28" height="28" viewBox="0 0 28 28" fill="none" xmlns="http://www.w3.org/2000/svg">
<path d="M27.3723 22.1283L23.0481 17.8037C22.1868 16.9458 20.7605 16.9719 19.8692 17.8635L17.6907 20.0415C17.553 19.9657 17.4106 19.8865 17.2608 19.8024C15.8851 19.0401 14.0022 17.9953 12.0208 16.0125C10.0336 14.0255 8.98781 12.1397 8.22321 10.7631C8.14253 10.6173 8.06522 10.4767 7.98888 10.3431L9.45099 8.8832L10.1698 8.16349C11.0625 7.27058 11.0871 5.84467 10.2278 4.98434L5.90366 0.659219C5.04438 -0.199902 3.61742 -0.173838 2.72476 0.719067L1.50606 1.94476L1.53937 1.97782C1.13072 2.49925 0.789244 3.10063 0.535128 3.74916C0.300881 4.36647 0.15504 4.95554 0.0883533 5.54583C-0.482624 10.2794 1.68046 14.6054 7.55079 20.4759C15.6654 28.5899 22.2047 27.9769 22.4868 27.947C23.1012 27.8735 23.69 27.7267 24.2884 27.4943C24.9313 27.2432 25.5323 26.9022 26.0534 26.4944L26.08 26.5181L27.3147 25.3091C28.2055 24.4164 28.2311 22.99 27.3723 22.1283Z" fill="#B88E1D"/>
</svg>
