<svg width="64" height="64" viewBox="0 0 64 64" fill="none" xmlns="http://www.w3.org/2000/svg">
<path d="M50.9753 28.8449L46.2964 20.1554C45.8626 19.3492 45.2497 18.6532 44.5049 18.1209C43.7601 17.5885 42.9032 17.234 42 17.0846V3C42 2.73478 41.8946 2.48043 41.7071 2.2929C41.5196 2.10536 41.2652 2 41 2H13C12.7348 2 12.4804 2.10536 12.2929 2.2929C12.1054 2.48043 12 2.73478 12 3V47C12 47.2652 12.1054 47.5196 12.2929 47.7071C12.4804 47.8946 12.7348 48 13 48H27.9901C27.9494 48.3318 27.929 48.6657 27.929 49C27.9233 50.9946 28.6618 52.9197 30 54.3987V55H27C26.7348 55 26.4804 55.1054 26.2929 55.2929C26.1054 55.4804 26 55.7348 26 56V62H28V57H46V62H48V56C48 55.7348 47.8946 55.4804 47.7071 55.2929C47.5196 55.1054 47.2652 55 47 55H46.2684L51.5269 33.0898C51.8719 31.6552 51.6755 30.1437 50.9753 28.8449ZM36 4H40V19H36V4ZM36 21H40V29H36V21ZM36 31H40V31.7574C39.9997 32.2475 39.8883 32.7312 39.6742 33.1722C39.4602 33.6131 39.149 33.9999 38.7641 34.3033C38.3792 34.6068 37.9305 34.8191 37.4518 34.9243C36.973 35.0296 36.4767 35.025 36 34.9109V31ZM34 4V9.92743C32.5055 9.70926 31.1214 9.01454 30.0534 7.94658C28.9855 6.87863 28.2907 5.49448 28.0726 4H34ZM14 4H19.9274C19.7093 5.49448 19.0145 6.87863 17.9466 7.94658C16.8786 9.01454 15.4945 9.70926 14 9.92743V4ZM14 11.9431C16.0275 11.7134 17.9171 10.8027 19.3599 9.35992C20.8027 7.91709 21.7134 6.02749 21.9431 4H26.0569C26.2866 6.02749 27.1973 7.91709 28.6401 9.35992C30.0829 10.8027 31.9725 11.7134 34 11.9431V19H14V11.9431ZM14 21H34V29H14V21ZM34 31V33.5858L31.9498 31.5355C31.7551 31.341 31.5455 31.162 31.3229 31H34ZM14 46V40.0726C15.4945 40.2907 16.8786 40.9855 17.9466 42.0534C19.0145 43.1214 19.7093 44.5055 19.9274 46H14ZM28.5036 46H21.9431C21.7134 43.9725 20.8027 42.0829 19.3599 40.6401C17.9171 39.1973 16.0275 38.2866 14 38.0569V31H25.1681C24.5537 31.4444 24.0432 32.017 23.6717 32.678C23.3002 33.3391 23.0767 34.0729 23.0165 34.8288C22.9564 35.5847 23.061 36.3447 23.3233 37.0561C23.5856 37.7676 23.9992 38.4137 24.5355 38.9497L29.6289 44.0431C29.1632 44.639 28.7844 45.2978 28.5036 46ZM49.582 32.623L44.2115 55H32V54C32 53.7348 31.8947 53.4804 31.7072 53.2929C31.1434 52.7292 30.6962 52.0599 30.3911 51.3233C30.086 50.5867 29.929 49.7973 29.929 49C29.929 48.2027 30.086 47.4133 30.3911 46.6767C30.6962 45.9401 31.1434 45.2708 31.7072 44.7071C31.8947 44.5195 32 44.2652 32 44C32 43.7348 31.8947 43.4805 31.7072 43.2929L25.9498 37.5355C25.3417 36.9274 25.0001 36.1027 25.0001 35.2427C25 34.3827 25.3417 33.5579 25.9498 32.9498C26.5579 32.3417 27.3826 32 28.2426 32C29.1026 32 29.9274 32.3416 30.5355 32.9497L33.0502 35.4645C33.7834 36.1977 34.7175 36.697 35.7345 36.8993C36.7515 37.1016 37.8056 36.9977 38.7636 36.6009C39.7215 36.2041 40.5403 35.5322 41.1164 34.67C41.6925 33.8079 42 32.7943 42 31.7574V19.123C42.5368 19.2593 43.0395 19.5058 43.4759 19.8468C43.9124 20.1877 44.2732 20.6158 44.5354 21.1036L49.2144 29.7932C49.6812 30.659 49.8121 31.6667 49.582 32.623Z" fill="white"/>
</svg>
