<svg width="28" height="28" viewBox="0 0 28 28" fill="none" xmlns="http://www.w3.org/2000/svg">
<g clip-path="url(#clip0)">
<path d="M25.3126 9.78123C24.9584 10.0312 23.8907 10.7735 22.1095 12.0078C20.3282 13.2421 18.9636 14.1925 18.0157 14.8591C17.9115 14.9321 17.6903 15.0909 17.3518 15.3357C17.0132 15.5807 16.7319 15.7786 16.5081 15.9296C16.2841 16.0806 16.0133 16.2499 15.6955 16.4373C15.3777 16.6246 15.0782 16.7655 14.7969 16.8587C14.5156 16.9528 14.2552 16.9993 14.0157 16.9993H14H13.9842C13.7447 16.9993 13.4842 16.9527 13.2029 16.8587C12.9218 16.7655 12.622 16.6245 12.3045 16.4373C11.9868 16.2497 11.7161 16.0805 11.4921 15.9296C11.2681 15.7786 10.987 15.5807 10.6483 15.3357C10.3099 15.0907 10.0884 14.9321 9.98421 14.8591C9.02604 14.1925 6.58831 12.4998 2.67179 9.7809C1.91141 9.24988 1.27614 8.60913 0.765802 7.85909C0.255085 7.10938 0 6.32289 0 5.50006C0 4.81246 0.247532 4.22387 0.742378 3.73433C1.23717 3.24469 1.82319 3 2.50006 3H25.5001C26.3021 3 26.9194 3.27079 27.3516 3.81237C27.7839 4.35407 28 5.03116 28 5.84359C28 6.49982 27.7134 7.21095 27.1406 7.97653C26.5678 8.74217 25.9583 9.34379 25.3126 9.78123Z" fill="#B88E1D"/>
<path d="M1.5627 11.4528C4.97901 13.7651 7.57309 15.5621 9.34369 16.8435C9.93742 17.2809 10.4191 17.6223 10.789 17.8669C11.1589 18.1117 11.6508 18.3617 12.2655 18.6168C12.88 18.8722 13.4527 18.9996 13.984 18.9996H14H14.0157C14.5469 18.9996 15.1199 18.8722 15.7344 18.6168C16.3489 18.3617 16.8411 18.1117 17.2109 17.8669C17.5806 17.6223 18.0624 17.2809 18.6561 16.8435C20.0624 15.8124 22.6509 14.0152 26.4217 11.4528C27.0156 11.0573 27.5417 10.6038 28 10.0935V22.4994C28 23.1873 27.7553 23.7756 27.2657 24.2652C26.7761 24.7549 26.1875 24.9997 25.4999 24.9997H2.49985C1.81248 24.9997 1.22388 24.7549 0.734289 24.2652C0.244534 23.7754 -4.3869e-05 23.1874 -4.3869e-05 22.4994V10.0935C0.447956 10.5933 0.968634 11.0467 1.5627 11.4528Z" fill="#B88E1D"/>
</g>
<defs>
<clipPath id="clip0">
<rect width="28" height="28" fill="white" transform="matrix(-1 0 0 1 28 0)"/>
</clipPath>
</defs>
</svg>
