<svg width="75" height="75" viewBox="0 0 75 75" fill="none" xmlns="http://www.w3.org/2000/svg">
<g clip-path="url(#clip0)">
<path d="M74.3237 44.9827C72.1324 41.9301 69.9111 41.8813 64.3496 44.8077L53.5705 51.3979C51.973 52.2479 48.6941 52.5029 45.514 52.5567C46.079 51.3804 45.8265 49.9766 44.759 48.3815C43.7702 46.9065 42.4239 45.734 40.8614 44.9327C43.4514 42.8276 45.0015 39.6938 45.0015 36.2499C45.0015 30.0472 39.9551 24.9995 33.7511 24.9995C27.5472 24.9995 22.5007 30.0472 22.5007 36.2499C22.5007 38.1012 22.9608 39.8688 23.7845 41.4451C23.7683 41.4338 23.7508 41.4238 23.7358 41.4113C19.2481 38.0274 11.7504 37.5499 8.75154 37.4987V33.7148H0V73.7511H8.75029V70.001H25.0008C27.5509 70.001 30.1235 69.806 32.6461 69.4235L48.8504 66.9597C49.4404 66.9522 50.0379 66.8822 50.5704 66.7622C52.063 66.5522 53.4893 65.8396 54.6981 64.6996L73.645 49.9441L73.6737 49.9203C75.15 48.6991 75.435 46.529 74.3237 44.9827ZM28.9635 43.5614C26.4771 41.9338 25.0008 39.2187 25.0008 36.2499C25.0008 31.4247 28.9272 27.4996 33.7511 27.4996C38.575 27.4996 42.5014 31.4247 42.5014 36.2499C42.5014 39.4825 40.7626 42.3863 37.9363 43.9239C37.7813 43.8939 37.6238 43.8789 37.4675 43.8551C37.3112 43.8314 37.1575 43.8039 36.9987 43.7864C36.5925 43.7414 36.1837 43.7139 35.7737 43.7139H30.8985C30.2698 43.7151 29.6197 43.6639 28.9635 43.5614ZM6.25021 71.2511H2.50008V36.2149H6.25021V37.5412V70.0023V71.2511ZM72.0924 47.9853L53.113 62.7645L53.0168 62.8483C52.1792 63.6496 51.213 64.1471 50.0992 64.3083C49.6441 64.4096 49.1904 64.4608 48.7516 64.4608L32.2698 66.9522C29.871 67.3172 27.4247 67.5022 25.0008 67.5022H8.75029V40.0025C11.5216 40.06 18.3831 40.5075 22.2307 43.4076C23.9008 44.6677 25.9021 45.5227 28.0372 45.9327L28.0559 45.944L28.2934 45.9852C28.3059 45.9877 28.3172 45.9877 28.3297 45.9902C28.7397 46.0602 29.1547 46.1165 29.5735 46.1527C29.5872 46.154 29.601 46.1565 29.6135 46.1577C30.0385 46.194 30.466 46.2152 30.8973 46.2152H35.7724C36.46 46.2152 37.1475 46.2965 37.815 46.4565L37.895 46.4765C39.8613 46.964 41.5701 48.1203 42.6789 49.7741C43.2052 50.5579 43.4127 51.2091 43.2364 51.5154C42.9027 52.0929 41.3539 52.4479 39.7826 52.5167C39.2713 52.5079 38.805 52.5017 38.3963 52.5017H26.2509C22.337 52.5017 20.0007 54.3705 20.0007 57.5018C20.0007 58.1919 20.5594 58.7519 21.2507 58.7519C21.942 58.7519 22.5007 58.1919 22.5007 57.5018C22.5007 56.8831 22.5007 55.0018 26.2509 55.0018H38.3688C38.6525 55.0193 39.1976 55.043 39.8838 55.018C40.0988 55.0218 40.3213 55.0255 40.5489 55.0293C46.4153 55.138 51.9167 55.108 54.8093 53.568L65.5822 46.9802C70.7374 44.2714 71.2561 44.9977 72.2912 46.4402C72.6374 46.9202 72.5487 47.5965 72.0924 47.9853Z" fill="white"/>
<path d="M40.0014 36.25C40.0014 32.8036 37.1976 29.9998 33.7512 29.9998C30.3048 29.9998 27.501 32.8036 27.501 36.25C27.501 39.6963 30.3048 42.5002 33.7512 42.5002C37.1976 42.5002 40.0014 39.6963 40.0014 36.25ZM33.7512 40.0001C31.6836 40.0001 30.0011 38.3175 30.0011 36.25C30.0011 34.1824 31.6836 32.4998 33.7512 32.4998C35.8188 32.4998 37.5013 34.1824 37.5013 36.25C37.5013 38.3175 35.8188 40.0001 33.7512 40.0001Z" fill="white"/>
<path d="M52.5018 23.7495C58.7058 23.7495 63.7522 18.7019 63.7522 12.4992C63.7522 6.29645 58.7058 1.24878 52.5018 1.24878C46.2979 1.24878 41.2515 6.29645 41.2515 12.4992C41.2515 18.7019 46.2979 23.7495 52.5018 23.7495ZM52.5018 3.74886C57.3257 3.74886 61.2521 7.67399 61.2521 12.4992C61.2521 17.3243 57.3257 21.2494 52.5018 21.2494C47.6779 21.2494 43.7515 17.3243 43.7515 12.4992C43.7515 7.67399 47.6779 3.74886 52.5018 3.74886Z" fill="white"/>
<path d="M52.5017 18.7494C55.948 18.7494 58.7519 15.9456 58.7519 12.4992C58.7519 9.05287 55.948 6.24902 52.5017 6.24902C49.0553 6.24902 46.2515 9.05287 46.2515 12.4992C46.2515 15.9456 49.0553 18.7494 52.5017 18.7494ZM52.5017 8.74911C54.5692 8.74911 56.2518 10.4317 56.2518 12.4992C56.2518 14.5668 54.5692 16.2494 52.5017 16.2494C50.4341 16.2494 48.7515 14.5668 48.7515 12.4992C48.7515 10.4317 50.4341 8.74911 52.5017 8.74911Z" fill="white"/>
</g>
<defs>
<clipPath id="clip0">
<rect width="75" height="75" fill="white"/>
</clipPath>
</defs>
</svg>
