<svg width="53" height="53" viewBox="0 0 53 53" fill="none" xmlns="http://www.w3.org/2000/svg">
<g clip-path="url(#clip0)">
<path d="M52.5221 31.7878C50.9736 29.6306 49.4038 29.5962 45.4738 31.6641L37.8565 36.3212C36.7276 36.9219 34.4105 37.1021 32.1632 37.1401C32.5625 36.3089 32.3841 35.3169 31.6297 34.1897C30.9309 33.1473 29.9796 32.3187 28.8754 31.7525C30.7057 30.2649 31.8011 28.0503 31.8011 25.6166C31.8011 21.2334 28.2349 17.6664 23.8508 17.6664C19.4667 17.6664 15.9005 21.2334 15.9005 25.6166C15.9005 26.9249 16.2256 28.174 16.8077 29.2879C16.7963 29.28 16.7839 29.2729 16.7733 29.264C13.602 26.8728 8.30361 26.5353 6.18442 26.4991V23.8252H0V52.1175H6.18354V49.4674H17.6673C19.4693 49.4674 21.2873 49.3296 23.0699 49.0593L34.5209 47.3182C34.9379 47.3129 35.3601 47.2635 35.7364 47.1786C36.7912 47.0302 37.7991 46.5267 38.6533 45.7211L52.0424 35.2939L52.0628 35.2771C53.106 34.4141 53.3074 32.8805 52.5221 31.7878ZM20.4675 30.7834C18.7105 29.6333 17.6673 27.7146 17.6673 25.6166C17.6673 22.2069 20.4419 19.4331 23.8508 19.4331C27.2597 19.4331 30.0343 22.2069 30.0343 25.6166C30.0343 27.901 28.8056 29.9531 26.8083 31.0396C26.6988 31.0184 26.5875 31.0078 26.477 30.991C26.3666 30.9742 26.258 30.9548 26.1458 30.9424C25.8587 30.9106 25.5698 30.8912 25.2801 30.8912H21.835C21.3906 30.8921 20.9313 30.8559 20.4675 30.7834ZM4.41681 50.3508H1.76673V25.5919H4.41681V26.5292V49.4683V50.3508ZM50.9453 33.9097L37.5332 44.3537L37.4652 44.4128C36.8733 44.9791 36.1905 45.3307 35.4034 45.4446C35.0819 45.5162 34.7612 45.5524 34.4511 45.5524L22.804 47.3129C21.1088 47.5709 19.3801 47.7016 17.6673 47.7016H6.18354V28.2685C8.14195 28.3091 12.9907 28.6254 15.7097 30.6748C16.8899 31.5652 18.3042 32.1694 19.8129 32.4592L19.8262 32.4671L19.994 32.4963C20.0029 32.498 20.0108 32.498 20.0197 32.4998C20.3094 32.5493 20.6027 32.589 20.8986 32.6146C20.9083 32.6155 20.918 32.6173 20.9269 32.6182C21.2272 32.6438 21.5293 32.6588 21.8341 32.6588H25.2792C25.765 32.6588 26.2509 32.7162 26.7226 32.8293L26.7791 32.8434C28.1687 33.1879 29.3762 34.0051 30.1598 35.1737C30.5317 35.7276 30.6783 36.1878 30.5538 36.4043C30.3179 36.8124 29.2234 37.0633 28.113 37.1118C27.7517 37.1057 27.4222 37.1012 27.1334 37.1012H18.5506C15.7848 37.1012 14.1338 38.4219 14.1338 40.6347C14.1338 41.1223 14.5287 41.5181 15.0172 41.5181C15.5057 41.5181 15.9005 41.1223 15.9005 40.6347C15.9005 40.1974 15.9005 38.868 18.5506 38.868H27.1139C27.3145 38.8803 27.6996 38.8971 28.1846 38.8795C28.3365 38.8821 28.4937 38.8848 28.6545 38.8874C32.8001 38.9643 36.6878 38.9431 38.7319 37.8548L46.3447 33.1994C49.9877 31.2852 50.3543 31.7984 51.0858 32.8178C51.3304 33.157 51.2677 33.6349 50.9453 33.9097Z" fill="white"/>
<path d="M28.2677 25.6166C28.2677 23.1812 26.2863 21.1998 23.8509 21.1998C21.4155 21.1998 19.4341 23.1812 19.4341 25.6166C19.4341 28.0521 21.4155 30.0335 23.8509 30.0335C26.2863 30.0335 28.2677 28.0521 28.2677 25.6166ZM23.8509 28.2667C22.3898 28.2667 21.2008 27.0777 21.2008 25.6166C21.2008 24.1556 22.3898 22.9666 23.8509 22.9666C25.312 22.9666 26.501 24.1556 26.501 25.6166C26.501 27.0777 25.312 28.2667 23.8509 28.2667Z" fill="white"/>
<path d="M37.1011 16.783C41.4853 16.783 45.0514 13.216 45.0514 8.83277C45.0514 4.44953 41.4853 0.882507 37.1011 0.882507C32.717 0.882507 29.1509 4.44953 29.1509 8.83277C29.1509 13.216 32.717 16.783 37.1011 16.783ZM37.1011 2.64923C40.51 2.64923 43.2847 5.42299 43.2847 8.83277C43.2847 12.2426 40.51 15.0163 37.1011 15.0163C33.6922 15.0163 30.9176 12.2426 30.9176 8.83277C30.9176 5.42299 33.6922 2.64923 37.1011 2.64923Z" fill="white"/>
<path d="M37.1011 13.2496C39.5366 13.2496 41.518 11.2682 41.518 8.83277C41.518 6.39734 39.5366 4.41595 37.1011 4.41595C34.6657 4.41595 32.6843 6.39734 32.6843 8.83277C32.6843 11.2682 34.6657 13.2496 37.1011 13.2496ZM37.1011 6.18268C38.5622 6.18268 39.7512 7.37169 39.7512 8.83277C39.7512 10.2938 38.5622 11.4829 37.1011 11.4829C35.6401 11.4829 34.4511 10.2938 34.4511 8.83277C34.4511 7.37169 35.6401 6.18268 37.1011 6.18268Z" fill="white"/>
</g>
<defs>
<clipPath id="clip0">
<rect width="53" height="53" fill="white"/>
</clipPath>
</defs>
</svg>
