<svg width="84" height="84" viewBox="0 0 84 84" fill="none" xmlns="http://www.w3.org/2000/svg">
<g clip-path="url(#clip0)">
<path d="M83.6231 20.7308C84.6331 18.0052 83.5577 14.9393 81.0667 13.4403C79.6202 12.5713 77.8623 12.3451 76.2435 12.8199C74.6246 13.2948 73.2673 14.4349 72.52 15.948L70.9896 19.0466C68.0256 25.0497 64.0919 30.4631 59.2989 35.1363C58.0248 36.3783 56.3438 37.064 54.5654 37.0679L51.0945 37.0749C53.5272 34.8268 55.0544 31.6128 55.0544 28.047V17.7553C55.0544 17.6534 55.0435 17.5547 55.0256 17.4573C57.3731 15.6917 58.8939 12.884 58.8939 9.72775V4.92188C58.8939 4.01569 58.1588 3.28125 57.2532 3.28125H39.057C33.9967 3.28125 29.8798 7.39819 29.8798 12.4585V28.047C29.8798 31.6141 31.4076 34.8293 33.8416 37.0768L29.4344 37.0679C27.656 37.0647 25.975 36.3783 24.7009 35.1369C19.9079 30.4637 15.9742 25.0503 13.0102 19.0473L11.4798 15.948C10.7326 14.4349 9.37519 13.2948 7.75636 12.8199C6.13752 12.3451 4.37962 12.5713 2.93318 13.4409C0.442119 14.9393 -0.63326 18.0052 0.37675 20.7308C4.13993 30.8867 9.55656 40.26 16.4747 48.592L21.328 54.4361V70.2194C21.328 71.1256 22.0625 71.86 22.9687 71.86H28.8954C29.8016 71.86 30.536 71.1256 30.536 70.2194C30.536 69.3138 29.8016 68.5788 28.8954 68.5788H24.6093V53.8439C24.6093 53.4607 24.4753 53.0896 24.2305 52.7954L18.9991 46.4957C12.3181 38.4496 7.08793 29.3973 3.4542 19.5907C2.9915 18.343 3.48368 16.9388 4.62443 16.2531C5.29606 15.8487 6.08048 15.7481 6.83286 15.9685C7.58525 16.1896 8.19023 16.6978 8.53758 17.4009L10.068 20.5001C13.1973 26.837 17.3502 32.5523 22.4105 37.4857C24.2985 39.3269 26.7908 40.344 29.4273 40.3491L33.2251 40.3568C33.989 44.5193 37.6407 47.6845 42.0204 47.6845C46.4001 47.6845 50.0518 44.5193 50.8157 40.3568L54.5718 40.3491C57.209 40.344 59.7014 39.3269 61.5894 37.4857C66.6497 32.5523 70.8018 26.837 73.9319 20.5001L75.4616 17.4009C75.809 16.6978 76.4146 16.189 77.167 15.9685C77.9193 15.7481 78.7031 15.8493 79.3748 16.2524C80.5155 16.9388 81.0083 18.3423 80.5456 19.5907C76.9119 29.3973 71.6818 38.4496 65.0001 46.4957L59.7686 52.7954C59.5309 53.0819 59.3989 53.4408 59.3918 53.8131H48.6175C47.7113 53.8131 46.9763 54.5476 46.9763 55.4538V60.3756H41.9999C41.0937 60.3756 40.3593 61.1101 40.3593 62.0163V79.0788C40.3593 79.985 41.0937 80.7194 41.9999 80.7194H73.5005C74.4061 80.7194 75.1412 79.985 75.1412 79.0788V74.1569H80.1175C81.0237 74.1569 81.7581 73.4225 81.7581 72.5163V55.4538C81.7581 54.5476 81.0237 53.8131 80.1175 53.8131H63.189L67.5251 48.592C74.4433 40.26 79.8599 30.8867 83.6231 20.7308ZM33.161 12.4585C33.161 9.20737 35.8059 6.5625 39.057 6.5625H55.6126V9.72775C55.6126 13.25 52.7473 16.1153 49.2251 16.1153H33.1604V12.4585H33.161ZM33.161 28.047V19.3959H51.7725V28.047C51.7725 33.0176 47.7293 37.0608 42.7593 37.0608H42.1749C37.2043 37.0608 33.161 33.0176 33.161 28.047ZM42.0204 44.4033C39.4621 44.4033 37.2947 42.6966 36.5955 40.3626H47.4454C46.7462 42.6966 44.5794 44.4033 42.0204 44.4033ZM43.6405 63.6569H56.2471C56.1747 63.8229 56.1298 64.003 56.1157 64.192C54.484 64.806 53.3279 66.3082 53.3279 68.0616C53.3279 69.4856 54.0912 70.7449 55.2524 71.496C55.1602 71.48 55.0653 71.4697 54.9685 71.4697C54.0624 71.4697 53.3279 72.2048 53.3279 73.1104C53.3279 74.8663 54.4879 76.3705 56.1227 76.9825C56.1426 77.1427 56.1849 77.2959 56.2471 77.4381H43.6405V63.6569ZM57.7499 72.2266C58.369 72.2266 58.8913 72.6316 58.8913 73.111C58.8913 73.5897 58.369 73.9948 57.7499 73.9948C57.1315 73.9948 56.6092 73.5897 56.6092 73.111C56.6092 72.6438 56.4131 72.2234 56.0997 71.9247C56.6098 72.1183 57.1667 72.2266 57.7499 72.2266ZM57.7499 68.9453C57.1315 68.9453 56.6092 68.5403 56.6092 68.0616C56.6092 67.5822 57.1315 67.1772 57.7499 67.1772C58.369 67.1772 58.8913 67.5822 58.8913 68.0616C58.8913 68.5281 59.0874 68.9485 59.4001 69.2472C58.89 69.053 58.3331 68.9453 57.7499 68.9453ZM71.8599 77.4381H59.2534C59.3156 77.2959 59.3578 77.1427 59.3771 76.9825C61.0126 76.3705 62.1725 74.8663 62.1725 73.111C62.1725 71.6863 61.4093 70.4277 60.248 69.6759C60.3403 69.692 60.4352 69.7022 60.5319 69.7022C61.4381 69.7022 62.1725 68.9671 62.1725 68.0616C62.1725 66.3082 61.0164 64.806 59.3848 64.192C59.3707 64.003 59.3258 63.8229 59.2534 63.6569H71.8599V77.4381ZM78.4769 70.8756H75.1412V62.0163C75.1412 61.1101 74.4061 60.3756 73.5005 60.3756H50.2582V57.0944H78.4769V70.8756Z" fill="white"/>
<path d="M35.4587 68.5787C35.0255 68.5787 34.6045 68.7543 34.2988 69.0594C33.9924 69.3644 33.8181 69.7881 33.8181 70.2194C33.8181 70.6513 33.9924 71.0743 34.2988 71.3793C34.6045 71.6844 35.0274 71.86 35.4587 71.86C35.8907 71.86 36.3137 71.6844 36.6187 71.3793C36.9238 71.0743 37.0994 70.6513 37.0994 70.2194C37.0994 69.7881 36.9238 69.3644 36.6187 69.0594C36.3137 68.7543 35.8907 68.5787 35.4587 68.5787Z" fill="white"/>
<path d="M39.6685 31.5879C40.4894 32.4088 41.5674 32.819 42.646 32.819C43.7239 32.819 44.8025 32.4088 45.6234 31.5879C46.2637 30.947 46.2637 29.9081 45.6234 29.2673C44.9826 28.6271 43.9437 28.6271 43.3028 29.2673C42.9408 29.63 42.3512 29.63 41.9884 29.2673C41.3476 28.6271 40.3087 28.6271 39.6678 29.2673C39.0276 29.9081 39.0276 30.947 39.6685 31.5879Z" fill="white"/>
<path d="M46.5137 26.2289C46.9469 26.2289 47.3686 26.0533 47.6736 25.7482C47.9787 25.4412 48.1543 25.0195 48.1543 24.5882C48.1543 24.155 47.9787 23.7333 47.6736 23.427C47.3686 23.1213 46.9463 22.9457 46.5137 22.9457C46.0817 22.9457 45.6607 23.1213 45.3537 23.427C45.0486 23.7333 44.873 24.155 44.873 24.5882C44.873 25.0195 45.0486 25.4412 45.3537 25.7482C45.66 26.0533 46.0817 26.2289 46.5137 26.2289Z" fill="white"/>
<path d="M38.4202 26.2269C38.8515 26.2269 39.2751 26.0533 39.5801 25.7482C39.8852 25.4412 40.0608 25.0182 40.0608 24.5863C40.0608 24.155 39.8852 23.7333 39.5801 23.427C39.2751 23.1213 38.8515 22.9457 38.4202 22.9457C37.9889 22.9457 37.5652 23.1213 37.2602 23.427C36.9532 23.7333 36.7795 24.155 36.7795 24.5863C36.7795 25.0182 36.9532 25.4412 37.2602 25.7482C37.5652 26.0533 37.9889 26.2269 38.4202 26.2269Z" fill="white"/>
<path d="M35.2458 51.0311C34.6049 50.3908 33.5661 50.3908 32.9252 51.0311C32.2844 51.6719 32.2844 52.7108 32.9252 53.3517L37.4895 57.9159C37.8099 58.2364 38.2297 58.3966 38.6495 58.3966C39.0692 58.3966 39.4897 58.2364 39.8094 57.9159C40.4503 57.2751 40.4503 56.2362 39.8094 55.5953L35.2458 51.0311Z" fill="white"/>
<path d="M36.4308 62.1809C36.4308 61.2747 35.6964 60.5403 34.7902 60.5403H30.7834C29.8779 60.5403 29.1428 61.2747 29.1428 62.1809C29.1428 63.0865 29.8779 63.8215 30.7834 63.8215H34.7902C35.6964 63.8215 36.4308 63.0865 36.4308 62.1809Z" fill="white"/>
</g>
<defs>
<clipPath id="clip0">
<rect width="84" height="84" fill="white"/>
</clipPath>
</defs>
</svg>
