<svg width="78" height="78" viewBox="0 0 78 78" fill="none" xmlns="http://www.w3.org/2000/svg">
<g clip-path="url(#clip0)">
<path d="M61 23.518C60.4801 23.2646 59.9251 23.0166 59.3522 22.7721C62.6745 16.3293 61.1178 8.44634 55.5964 3.74882C50.075 -0.948109 42.0445 -1.22055 36.2174 3.09092C30.3897 7.40298 28.3023 15.1622 31.1796 21.8162C30.3522 22.1291 29.5402 22.4759 28.7407 22.8476C25.5518 19.9305 20.5503 19.5653 18.432 19.5534C17.1513 19.5468 16.0556 20.4718 15.8474 21.7353C15.6558 22.9595 15.5785 24.1991 15.6172 25.4376C14.5744 25.4953 13.537 25.6256 12.5115 25.8272C11.2516 26.0723 10.3569 27.1966 10.4015 28.4797C10.4551 31.0244 11.1166 33.5192 12.33 35.7565C12.1819 35.9218 12.032 36.0854 11.8851 36.2502C11.0553 37.1758 10.1963 38.1323 9.32011 39.0168C7.64026 40.3047 5.61004 41.0536 3.49594 41.1648C2.38893 41.3153 1.39315 41.9179 0.746552 42.8286C0.099356 43.7399 -0.141558 44.8779 0.0809156 45.973L2.19382 56.603C2.35383 57.4994 3.2128 58.209 4.74334 59.2018L4.92536 59.3214C6.07461 60.0638 7.31071 60.6616 8.60688 61.1C9.42421 61.3915 10.2219 61.7359 10.9952 62.1309C12.7744 63.0928 14.3186 64.4377 15.5161 66.0682C15.732 66.371 15.9616 66.6607 16.215 66.9557C18.5117 69.3488 21.4604 71.0144 24.6958 71.7454V74.1314C24.6958 76.2841 26.441 78.0294 28.5938 78.0294H37.6902C39.843 78.0294 41.5889 76.2841 41.5889 74.1314V73.966C42.6763 74.0166 43.7625 74.0677 44.8594 74.104C45.4548 74.1248 46.0473 74.1338 46.6332 74.1338C47.5689 74.1338 48.482 74.0998 49.3856 74.0493V74.1314C49.3856 76.2841 51.1308 78.0294 53.2836 78.0294H62.38C64.5334 78.0294 66.2787 76.2841 66.2787 74.1314V69.0984C73.1652 64.9148 77.5421 57.6005 77.9734 49.5546C78.4737 38.952 71.8102 28.7301 61 23.518ZM45.4869 2.66025C51.5466 2.63943 56.8134 6.81586 58.1733 12.7209C59.5325 18.626 56.6231 24.6857 51.1642 27.3167C46.9705 26.4108 42.665 26.1395 38.3904 26.5107C33.5727 23.3759 31.392 17.4446 33.0314 11.9351C34.6702 6.42624 39.7389 2.65192 45.4869 2.66025ZM18.4243 22.1523C21.1487 22.0957 23.8362 22.7882 26.1936 24.1551C24.9539 24.8594 23.703 25.6714 22.4591 26.55C21.1189 25.9432 19.6824 25.5792 18.2149 25.4739C18.1721 24.3627 18.2422 23.2498 18.4243 22.1523ZM13.0159 28.3744C14.3109 28.1174 15.6291 27.9925 16.9496 28.0014C16.9728 28.0014 16.9925 28.0133 17.0145 28.0133C17.0365 28.0133 17.0948 28.0133 17.1352 28.005C19.6045 27.8717 21.9993 28.877 23.6328 30.7341C24.7172 31.8602 25.0241 33.5252 24.412 34.9641C23.3514 36.6767 21.4871 37.7266 19.473 37.7462C16.5749 37.7462 13.3145 34.813 13.0016 28.3744H13.0159ZM75.3745 49.4309C75.0247 56.0682 71.6466 62.1767 66.2109 66.0016C66.0681 65.437 65.5619 65.0397 64.9789 65.0349C64.2615 65.0349 63.6798 65.6167 63.6798 66.3341V74.1314C63.6798 74.8488 63.098 75.4305 62.38 75.4305H53.2836C52.5662 75.4305 51.9845 74.8488 51.9845 74.1314V70.2327C51.9845 69.5153 51.4027 68.9336 50.6847 68.9336C49.9673 68.9336 49.3856 69.5153 49.3856 70.2327V71.4349C47.9454 71.5206 46.4666 71.5646 44.945 71.5063C43.8196 71.4688 42.7048 71.4177 41.5889 71.3659V70.2327C41.5889 69.5153 41.0065 68.9336 40.2891 68.9336C39.5711 68.9336 38.9894 69.5153 38.9894 70.2327V74.1314C38.9894 74.8488 38.4076 75.4305 37.6902 75.4305H28.5938C27.8764 75.4305 27.2947 74.8488 27.2947 74.1314V67.6338C27.2947 66.9164 26.7129 66.3341 25.9949 66.3341C25.2775 66.3341 24.6958 66.9164 24.6958 67.6338V69.0335C22.2099 68.419 19.9518 67.108 18.1851 65.2544C17.9877 65.0242 17.8032 64.7934 17.62 64.537C16.1906 62.5895 14.3466 60.984 12.2206 59.8371C11.3509 59.3886 10.4527 58.9984 9.53187 58.6677C8.42902 58.2983 7.37495 57.7962 6.39226 57.1734L6.1573 57.0187C5.63978 56.7118 5.15438 56.3531 4.70943 55.948L2.63044 45.4561C2.54894 45.0611 2.63639 44.6501 2.87254 44.3229C3.09858 44.0011 3.44895 43.7887 3.83917 43.7364C6.17812 43.4288 9.34866 42.6763 11.1683 40.8424C12.0891 39.9109 12.9707 38.93 13.8201 37.9842L13.9284 37.8628C15.3673 39.4029 17.366 40.2975 19.473 40.3451C22.4752 40.3303 25.243 38.7218 26.742 36.1205C27.8015 33.803 27.3976 31.0786 25.7106 29.1685C25.4239 28.7926 25.105 28.4422 24.7576 28.121C25.7028 27.4827 26.6475 26.8789 27.5832 26.3513C29.1405 25.4852 30.7662 24.7464 32.4431 24.142C33.1028 25.1521 33.8767 26.0824 34.7493 26.9152C33.2836 27.1347 32.3556 27.3423 32.1998 27.3774C31.5002 27.5392 31.0636 28.237 31.2254 28.9371C31.3866 29.6367 32.085 30.0733 32.7845 29.9115C32.9469 29.8728 49.2202 26.2472 59.0013 33.5829C59.5753 34.013 60.3903 33.897 60.8209 33.3229C61.2516 32.7483 61.135 31.934 60.561 31.5033C58.7205 30.1452 56.6897 29.0674 54.534 28.3042C55.8284 27.3804 56.9729 26.2627 57.9252 24.9891C58.6093 25.274 59.2612 25.5584 59.8656 25.8522C69.7401 30.6187 75.8284 39.8722 75.3745 49.4309Z" fill="white"/>
<path d="M41.5887 19.841C41.5887 19.1236 41.0064 18.5419 40.289 18.5419C39.571 18.5419 38.9893 19.1236 38.9893 19.841C38.9893 22.7237 41.904 25.0692 45.4868 25.0692C49.0696 25.0692 51.9843 22.7296 51.9843 19.841C51.9843 17.3177 49.7477 15.206 46.7865 14.7212V9.52337C48.2808 9.89515 49.3854 10.8671 49.3854 11.9849C49.3854 12.7022 49.9672 13.284 50.6846 13.284C51.4026 13.284 51.9843 12.7022 51.9843 11.9849C51.9843 9.45972 49.7477 7.3492 46.7865 6.8632V6.55805C46.7865 5.84006 46.2048 5.2583 45.4868 5.2583C44.7694 5.2583 44.1876 5.84006 44.1876 6.55805V6.86618C41.2259 7.35217 38.9893 9.46507 38.9893 11.9872C38.9893 14.5094 41.2259 16.6223 44.1876 17.1083V22.3061C42.6928 21.9307 41.5887 20.9587 41.5887 19.841ZM49.3854 19.841C49.3854 20.9587 48.2808 21.9307 46.7865 22.3025V17.3813C48.2808 17.7519 49.3854 18.7239 49.3854 19.841ZM41.5887 11.9872C41.5887 10.8695 42.6928 9.89753 44.1876 9.52575V14.4481C42.6928 14.0769 41.5887 13.105 41.5887 11.9872Z" fill="white"/>
</g>
<defs>
<clipPath id="clip0">
<rect width="78" height="78" fill="white"/>
</clipPath>
</defs>
</svg>
