<svg width="79" height="79" viewBox="0 0 79 79" fill="none" xmlns="http://www.w3.org/2000/svg">
<g clip-path="url(#clip0)">
<path d="M14.0192 66.3504L49.4918 78.9269C49.8098 79.0399 50.1594 79.0213 50.4637 78.8766C50.7704 78.7176 51.0039 78.4456 51.1157 78.1183L55.662 65.2575H64.8522C65.5545 65.2575 66.1972 64.7576 66.1972 64.0552V17.6531C66.1836 17.3625 66.0743 17.0843 65.8855 16.8626L58.2516 7.24831C58.0044 6.94092 57.6325 6.75959 57.2375 6.75586H44.05C43.9997 6.75586 43.9494 6.62732 43.8979 6.55838C42.0193 4.03341 39.7167 2.03877 37.4171 0.931532C34.8506 -0.30301 32.5361 -0.309841 30.9004 0.907313C29.2647 2.12509 28.6083 4.34577 29.0542 7.15827C29.3131 8.66791 29.7901 10.1322 30.4688 11.5052L26.2355 16.8632C26.0622 17.0892 25.9709 17.3681 25.9765 17.6531V28.9068L13.2616 64.7265C13.1455 65.0426 13.1604 65.3916 13.3026 65.6965C13.4454 66.0008 13.7031 66.2362 14.0192 66.3504ZM32.4187 2.93859C33.9557 1.79472 37.5842 3.09819 40.7947 6.75462H34.8332C34.4438 6.75959 34.0768 6.94092 33.8365 7.24769L32.256 9.24171C31.1059 6.28328 31.2419 3.81358 32.4187 2.93859ZM28.5201 18.0959L31.8393 13.8911C32.0815 14.26 32.3268 14.6258 32.5951 14.9859C34.4736 17.5109 36.7713 19.5111 39.0721 20.6184C39.5652 20.8575 40.0756 21.058 40.5997 21.2176C40.9668 23.9649 43.3284 26.0061 46.0999 25.9701C48.872 25.9347 51.1803 23.8345 51.4765 21.0779C51.7727 18.3219 49.9631 15.7789 47.2624 15.1555C44.5611 14.532 41.82 16.0242 40.878 18.6312C38.9634 17.9177 36.6465 16.1801 34.6276 13.4676C34.2227 12.9199 33.8464 12.3523 33.4993 11.7667L35.4473 9.29822H56.6227L63.6536 18.0959V62.7139H28.5201V18.0959ZM47.3512 17.8736C48.5311 18.4629 49.1739 19.767 48.923 21.0618C48.6721 22.3565 47.5891 23.3259 46.2744 23.4327C44.9598 23.5389 43.7345 22.7571 43.2787 21.5188C44.1121 21.4431 44.9095 21.1413 45.5839 20.6457C46.4589 19.9949 47.0556 19.051 47.3512 17.8729V17.8736ZM44.0662 18.6045C43.9233 18.7088 43.7662 18.792 43.5998 18.8516C43.8662 18.4592 44.2226 18.1369 44.6393 17.9108C44.504 18.1828 44.3077 18.4207 44.0662 18.6051V18.6045ZM25.9765 36.519V64.0552C25.9722 64.3819 26.1026 64.6961 26.3373 64.924C26.572 65.1513 26.89 65.2724 27.2166 65.2575H52.9638L49.1428 76.0703L16.0834 64.3608L25.9765 36.519Z" fill="white"/>
<path d="M58.8565 56.8318H33.2137C32.5113 56.8318 31.9419 57.4012 31.9419 58.1036C31.9419 58.8066 32.5113 59.3754 33.2137 59.3754H58.8565C59.5589 59.3754 60.1283 58.8066 60.1283 58.1036C60.1283 57.4012 59.5589 56.8318 58.8565 56.8318Z" fill="white"/>
<path d="M58.8565 50.7908H33.2137C32.5113 50.7908 31.9419 51.3602 31.9419 52.0626C31.9419 52.7655 32.5113 53.3344 33.2137 53.3344H58.8565C59.5589 53.3344 60.1283 52.7655 60.1283 52.0626C60.1283 51.3602 59.5589 50.7908 58.8565 50.7908Z" fill="white"/>
<path d="M36.975 39.8047C36.975 36.5991 32.9435 36.8406 32.9435 35.5688C32.9435 35.1751 33.3123 34.8063 34.2153 34.8063C35.2579 34.8063 35.4995 35.2894 35.9572 35.2894C36.5173 35.2894 36.7458 34.5895 36.7458 34.2467C36.7458 33.2544 34.889 33.1271 34.2153 33.1271C32.6255 33.1271 30.9594 33.8524 30.9594 35.7601C30.9594 38.7359 34.9909 38.4689 34.9909 40.0077C34.9909 40.6182 34.3426 40.8473 33.757 40.8473C32.5746 40.8473 32.1927 39.9059 31.5953 39.9059C31.1121 39.9059 30.7302 40.5418 30.7302 40.9746C30.7302 41.8136 32.1293 42.6277 33.7955 42.6277C35.6398 42.6277 36.975 41.636 36.975 39.8047Z" fill="white"/>
<path d="M39.862 42.5004C40.18 42.5004 40.434 42.437 40.5103 42.1694L40.9432 40.6163H43.6265L44.0587 42.1694C44.1351 42.4364 44.3897 42.519 44.7077 42.519C45.2548 42.519 45.9795 42.1663 45.9795 41.6956C45.9757 41.6465 45.9677 41.5981 45.954 41.5509L43.5756 33.7909C43.4352 33.3456 42.8633 33.1283 42.2783 33.1283C41.6927 33.1283 41.1208 33.3438 40.9811 33.789L38.6151 41.5471C38.602 41.5925 38.5933 41.6397 38.5896 41.6869C38.5902 42.1576 39.3149 42.5004 39.862 42.5004ZM42.2783 35.6185L43.2067 39.0265H41.3499L42.2783 35.6185Z" fill="white"/>
<path d="M48.8534 42.524H52.8725C53.2537 42.524 53.4444 42.0825 53.4444 41.6497C53.4444 41.2175 53.2537 40.7753 52.8725 40.7753H49.9817V33.8015C49.9817 33.3817 49.4446 33.2035 48.9484 33.2035C48.4528 33.2035 47.915 33.3817 47.915 33.8015V41.89C47.915 42.2974 48.4212 42.524 48.8534 42.524Z" fill="white"/>
<path d="M60.9101 34.8933C61.2914 34.8933 61.5081 34.4772 61.5081 34.0065C61.5081 33.5997 61.3299 33.1445 60.9101 33.1445H56.3824C55.9502 33.1445 55.5459 33.4072 55.5459 33.814V41.89C55.5459 42.2968 55.9502 42.5241 56.3824 42.5241H60.9101C61.3299 42.5241 61.5081 42.0695 61.5081 41.6627C61.5081 41.192 61.2914 40.7753 60.9101 40.7753H57.4536V38.5497H59.4091C59.8289 38.5497 60.0071 38.1908 60.0071 37.8473C60.0071 37.4406 59.7904 37.1189 59.4091 37.1189H57.4536V34.8933H60.9101Z" fill="white"/>
</g>
<defs>
<clipPath id="clip0">
<rect width="79" height="79" fill="white"/>
</clipPath>
</defs>
</svg>
