<svg width="85" height="85" viewBox="0 0 85 85" fill="none" xmlns="http://www.w3.org/2000/svg">
<g clip-path="url(#clip0)">
<path d="M4.81376 80.2681C4.95932 81.0996 5.75129 81.6557 6.58282 81.5102L19.064 79.3269C19.8955 79.1813 20.4516 78.3893 20.306 77.5578L20.0627 76.1642L22.9738 73.8003C24.1143 72.85 25.5803 72.382 27.0598 72.4932L47.4135 73.9809C47.4479 73.9839 47.4815 73.9846 47.5158 73.9854H47.6412C52.1325 73.9757 56.5051 72.5448 60.132 69.8957C60.1903 69.8531 60.2455 69.8061 60.2978 69.7553L84.5405 46.018C85.119 45.4522 85.1555 44.534 84.6256 43.9235C81.8279 40.6944 76.988 40.2331 73.6313 42.8747L62.496 51.2012C60.1806 48.3834 56.529 47.0286 52.9364 47.6541L41.554 49.6449C39.7402 49.9599 37.8793 49.8628 36.108 49.3612L34.8354 48.9977C28.2944 47.119 21.2473 48.582 15.9939 52.909L15.5147 50.1681C15.3691 49.3366 14.5771 48.7805 13.7456 48.9261L1.26521 51.1094C0.433685 51.2557 -0.122409 52.0477 0.0231458 52.8792L4.81376 80.2681ZM33.9994 51.9394L35.272 52.3022C37.4867 52.9299 39.8133 53.0509 42.081 52.6575L53.4634 50.6668C56.7246 50.1002 59.9425 51.8708 61.2092 54.9289L44.1695 57.9094C43.3873 58.0453 42.8394 58.7566 42.9081 59.5471C42.976 60.3376 43.6373 60.9444 44.4308 60.9444C44.5196 60.9444 44.6084 60.9369 44.6965 60.9213L63.4059 57.6489C64.2374 57.5026 64.7935 56.7106 64.648 55.8791C64.5263 55.1827 64.3315 54.5004 64.0673 53.8443L75.4773 45.3126C75.4877 45.3044 75.4982 45.2962 75.5086 45.2879C77.1567 43.9847 79.4483 43.8638 81.2241 44.9871L58.2376 67.5003C55.1518 69.7277 51.4458 70.9317 47.6405 70.9414H47.583L27.2815 69.4515C25.0198 69.2798 22.7797 69.9927 21.0338 71.4408L19.4588 72.7179L16.6171 56.471C21.1487 51.8999 27.8122 50.1629 33.9994 51.9394ZM12.767 52.2014L17.0314 76.5785L7.56214 78.2356L3.29776 53.8585L12.767 52.2014Z" fill="white"/>
<path d="M46.3216 45.3043C57.7861 45.3043 67.0799 36.0112 67.0799 24.5467C67.0799 13.0822 57.7868 3.78834 46.3223 3.7876C34.8578 3.7876 25.564 13.0815 25.5632 24.5459C25.5759 36.0052 34.8623 45.2916 46.3216 45.3043ZM46.3216 6.84499C56.0976 6.84499 64.0225 14.7706 64.0225 24.5467C64.0225 34.3228 56.0976 42.2476 46.3216 42.2469C36.5455 42.2469 28.6206 34.322 28.6206 24.5459C28.6318 14.7744 36.5508 6.85619 46.3216 6.84499Z" fill="white"/>
<path d="M45.2518 27.7556H53.8045C54.6487 27.7556 55.3332 27.0712 55.3332 26.227C55.3332 25.3827 54.6487 24.6983 53.8045 24.6983H46.7036V14.9252C46.7036 14.0802 46.0192 13.3965 45.1749 13.3965C44.3307 13.3965 43.6462 14.0802 43.6462 14.9252V26.1508C43.6768 27.0241 44.3777 27.7258 45.2518 27.7556Z" fill="white"/>
</g>
<defs>
<clipPath id="clip0">
<rect width="85" height="85" fill="white"/>
</clipPath>
</defs>
</svg>
